<svg aria-hidden="true" style="position: absolute; width: 0; height: 0; overflow: hidden;" version="1.1" xmlns="http://www.w3.org/2000/svg" xmlns:xlink="http://www.w3.org/1999/xlink">
<defs>

<symbol id="icon-search" viewBox="0 0 21 21">
<path d="M9.625 16.625C13.491 16.625 16.625 13.491 16.625 9.625C16.625 5.759 13.491 2.625 9.625 2.625C5.759 2.625 2.625 5.759 2.625 9.625C2.625 13.491 5.759 16.625 9.625 16.625Z" stroke="#A3A3C2" stroke-width="2" stroke-linecap="round" stroke-linejoin="round"/>
<path d="M18.375 18.375L14.5687 14.5687" stroke="#A3A3C2" stroke-width="2" stroke-linecap="round" stroke-linejoin="round"/>
</symbol>

<symbol id="icon-user" viewBox="0 0 24 24">
<path d="M9.3 11.1111C10.012 11.1111 10.708 10.9026 11.3001 10.5119C11.8921 10.1212 12.3535 9.5659 12.626 8.91621C12.8984 8.26652 12.9697 7.55161 12.8308 6.8619C12.6919 6.17219 12.3491 5.53865 11.8456 5.0414C11.3421 4.54415 10.7007 4.20551 10.0023 4.06832C9.30399 3.93113 8.58015 4.00154 7.92234 4.27065C7.26453 4.53976 6.70228 4.99549 6.30671 5.5802C5.91114 6.1649 5.7 6.85233 5.7 7.55556C5.7 8.49855 6.07928 9.40292 6.75442 10.0697C7.42955 10.7365 8.34522 11.1111 9.3 11.1111ZM9.3 5.77778C9.65601 5.77778 10.004 5.88204 10.3 6.07739C10.596 6.27273 10.8267 6.55038 10.963 6.87523C11.0992 7.20008 11.1349 7.55753 11.0654 7.90238C10.996 8.24724 10.8245 8.56401 10.5728 8.81263C10.3211 9.06126 10.0003 9.23058 9.65116 9.29917C9.302 9.36777 8.94008 9.33256 8.61117 9.19801C8.28226 9.06345 8.00114 8.83559 7.80335 8.54324C7.60557 8.25088 7.5 7.90717 7.5 7.55556C7.5 7.08406 7.68964 6.63188 8.02721 6.29848C8.36477 5.96508 8.82261 5.77778 9.3 5.77778ZM16.5 12.8889C17.034 12.8889 17.556 12.7325 18 12.4395C18.4441 12.1465 18.7901 11.73 18.9945 11.2427C19.1988 10.7554 19.2523 10.2193 19.1481 9.70198C19.0439 9.1847 18.7868 8.70955 18.4092 8.33661C18.0316 7.96367 17.5505 7.70969 17.0267 7.6068C16.503 7.5039 15.9601 7.55671 15.4668 7.75854C14.9734 7.96038 14.5517 8.30217 14.255 8.7407C13.9584 9.17923 13.8 9.69481 13.8 10.2222C13.8 10.9295 14.0845 11.6077 14.5908 12.1078C15.0972 12.6079 15.7839 12.8889 16.5 12.8889ZM16.5 9.33333C16.678 9.33333 16.852 9.38547 17 9.48314C17.148 9.58081 17.2634 9.71964 17.3315 9.88206C17.3996 10.0445 17.4174 10.2232 17.3827 10.3956C17.348 10.5681 17.2623 10.7264 17.1364 10.8508C17.0105 10.9751 16.8502 11.0597 16.6756 11.094C16.501 11.1283 16.32 11.1107 16.1556 11.0434C15.9911 10.9762 15.8506 10.8622 15.7517 10.7161C15.6528 10.5699 15.6 10.398 15.6 10.2222C15.6 9.98647 15.6948 9.76038 15.8636 9.59368C16.0324 9.42699 16.2613 9.33333 16.5 9.33333ZM16.5 13.7778C15.5026 13.7789 14.5339 14.1072 13.746 14.7111C12.8645 13.8439 11.7427 13.2539 10.522 13.0155C9.30143 12.7771 8.03669 12.9011 6.8873 13.3717C5.73792 13.8423 4.75537 14.6385 4.06357 15.6599C3.37176 16.6814 3.00168 17.8822 3 19.1111C3 19.3469 3.09482 19.573 3.2636 19.7397C3.43239 19.9064 3.66131 20 3.9 20C4.13869 20 4.36761 19.9064 4.5364 19.7397C4.70518 19.573 4.8 19.3469 4.8 19.1111C4.8 17.9324 5.27411 16.8019 6.11802 15.9684C6.96193 15.1349 8.10653 14.6667 9.3 14.6667C10.4935 14.6667 11.6381 15.1349 12.482 15.9684C13.3259 16.8019 13.8 17.9324 13.8 19.1111C13.8 19.3469 13.8948 19.573 14.0636 19.7397C14.2324 19.9064 14.4613 20 14.7 20C14.9387 20 15.1676 19.9064 15.3364 19.7397C15.5052 19.573 15.6 19.3469 15.6 19.1111C15.6021 18.0697 15.3358 17.0449 14.826 16.1333C15.2237 15.8229 15.7019 15.6294 16.2058 15.5748C16.7097 15.5203 17.219 15.6069 17.6754 15.8249C18.1317 16.0428 18.5168 16.3833 18.7864 16.8072C19.056 17.2312 19.1994 17.7216 19.2 18.2222C19.2 18.458 19.2948 18.6841 19.4636 18.8508C19.6324 19.0175 19.8613 19.1111 20.1 19.1111C20.3387 19.1111 20.5676 19.0175 20.7364 18.8508C20.9052 18.6841 21 18.458 21 18.2222C21 17.0435 20.5259 15.913 19.682 15.0795C18.8381 14.246 17.6935 13.7778 16.5 13.7778Z" />
</symbol>

<symbol id="icon-tick" viewBox="0 0 18 18">
<path fill-rule="evenodd" clip-rule="evenodd" d="M6 0.75H12C14.8995 0.75 17.25 3.10051 17.25 6V12C17.25 14.8995 14.8995 17.25 12 17.25H6C3.10051 17.25 0.75 14.8995 0.75 12V6C0.75 3.10051 3.10051 0.75 6 0.75ZM6.00002 2.25002C3.92895 2.25002 2.25002 3.92895 2.25002 6.00002V12C2.25002 14.0711 3.92895 15.75 6.00002 15.75H12C14.0711 15.75 15.75 14.0711 15.75 12V6.00002C15.75 3.92895 14.0711 2.25002 12 2.25002H6.00002ZM6.51867 8.45879L8.22201 10.1402L11.4133 6.27264C11.6769 5.95315 12.1496 5.90786 12.4691 6.17148C12.7886 6.43511 12.8339 6.90782 12.5703 7.22731L8.85714 11.7273C8.57676 12.0671 8.06528 12.0932 7.75176 11.7837L5.4649 9.52629C5.17012 9.2353 5.16704 8.76044 5.45803 8.46565C5.74903 8.17087 6.22389 8.1678 6.51867 8.45879Z"/>
</symbol>

<symbol id="icon-box" viewBox="0 0 16 16">
<path fill-rule="evenodd" clip-rule="evenodd" d="M11.3335 2.66653V1.99992C11.3335 1.63173 11.632 1.33325 12.0001 1.33325C12.3683 1.33325 12.6668 1.63173 12.6668 1.99992V2.66653H13.3334C14.438 2.66653 15.3334 3.56196 15.3334 4.66653V6.66653V7.99986V11.3332C15.3334 13.5423 13.5426 15.3332 11.3334 15.3332H4.66675C2.45761 15.3332 0.666748 13.5423 0.666748 11.3332V7.99986V6.66653V4.66653C0.666748 3.56196 1.56218 2.66653 2.66675 2.66653H4.00002V1.99992C4.00002 1.63173 4.2985 1.33325 4.66669 1.33325C5.03488 1.33325 5.33336 1.63173 5.33336 1.99992V2.66653H11.3335ZM2.00002 7.99986V11.3331C2.00002 12.8059 3.19393 13.9998 4.66669 13.9998H11.3334C12.8061 13.9998 14 12.8059 14 11.3331V7.99986H2.00002ZM2.66669 3.9998H4.00002V3.99992C4.00002 4.36811 4.2985 4.66659 4.66669 4.66659C5.03488 4.66659 5.33336 4.36811 5.33336 3.99992V3.9998H11.3335V3.99992C11.3335 4.36811 11.632 4.66659 12.0001 4.66659C12.3683 4.66659 12.6668 4.36811 12.6668 3.99992V3.9998H13.3334C13.7015 3.9998 14 4.29828 14 4.66647V6.66647H2.00002V4.66647C2.00002 4.29828 2.2985 3.9998 2.66669 3.9998Z"/>
</symbol>

<symbol id="icon-time" viewBox="0 0 16 16">
<path fill-rule="evenodd" clip-rule="evenodd" d="M8.00002 0.666687C12.0501 0.666687 15.3334 3.94993 15.3334 8.00002C15.3334 12.0501 12.0501 15.3334 8.00002 15.3334C3.94993 15.3334 0.666687 12.0501 0.666687 8.00002C0.666687 3.94993 3.94993 0.666687 8.00002 0.666687ZM8.00002 2.00002C4.68631 2.00002 2.00002 4.68631 2.00002 8.00002C2.00002 11.3137 4.68631 14 8.00002 14C11.3137 14 14 11.3137 14 8.00002C14 4.68631 11.3137 2.00002 8.00002 2.00002ZM8.00002 3.33335C8.36821 3.33335 8.66669 3.63183 8.66669 4.00002V7.67396L11.4093 9.80712C11.6999 10.0332 11.7523 10.452 11.5263 10.7426C11.3002 11.0333 10.8814 11.0856 10.5907 10.8596L7.59073 8.52626C7.42834 8.39995 7.33335 8.20575 7.33335 8.00002V4.00002C7.33335 3.63183 7.63183 3.33335 8.00002 3.33335Z"/>
</symbol>

<symbol id="message" viewBox="0 0 16 17">
<path fill-rule="evenodd" clip-rule="evenodd" d="M14.5221 15.8175C14.9984 15.9233 15.4233 15.4984 15.3175 15.0221L14.5857 11.7293C15.0749 10.7336 15.3334 9.63481 15.3334 8.50002C15.3334 4.44993 12.0501 1.16669 8.00002 1.16669C3.94993 1.16669 0.666687 4.44993 0.666687 8.50002C0.666687 12.5501 3.94993 15.8334 8.00002 15.8334C9.13481 15.8334 10.2336 15.5749 11.2293 15.0857L14.5221 15.8175ZM13.2949 11.3249C13.2198 11.4654 13.1974 11.6283 13.232 11.7839L13.7886 14.2886L11.2839 13.732C11.1283 13.6974 10.9654 13.7198 10.8249 13.7949C9.96327 14.2557 9.00002 14.5 8.00002 14.5C4.68631 14.5 2.00002 11.8137 2.00002 8.50002C2.00002 5.18631 4.68631 2.50002 8.00002 2.50002C11.3137 2.50002 14 5.18631 14 8.50002C14 9.50002 13.7557 10.4633 13.2949 11.3249ZM6.00002 9.83335C6.7364 9.83335 7.33335 9.2364 7.33335 8.50002C7.33335 7.76364 6.7364 7.16669 6.00002 7.16669C5.26364 7.16669 4.66669 7.76364 4.66669 8.50002C4.66669 9.2364 5.26364 9.83335 6.00002 9.83335ZM11.3334 8.50002C11.3334 9.2364 10.7364 9.83335 10 9.83335C9.26364 9.83335 8.66669 9.2364 8.66669 8.50002C8.66669 7.76364 9.26364 7.16669 10 7.16669C10.7364 7.16669 11.3334 7.76364 11.3334 8.50002Z" />
</symbol>

<symbol id="icon-bell" viewBox="0 0 18 18">
<path fill-rule="evenodd" clip-rule="evenodd" d="M11.235 3.48071C11.102 2.36502 10.1525 1.5 9.00098 1.5C7.84947 1.5 6.9 2.36502 6.76693 3.48071C4.88993 4.3316 3.58431 6.22166 3.58431 8.41667V12.1799L2.33144 14.662C2.07964 15.1609 2.4422 15.75 3.00098 15.75H6.87901C7.18788 16.6239 8.02131 17.25 9.00098 17.25C9.98064 17.25 10.8141 16.6239 11.1229 15.75H15.001C15.5598 15.75 15.9223 15.1609 15.6705 14.662L14.4176 12.1799V8.41667C14.4176 6.22166 13.112 4.3316 11.235 3.48071ZM12.9981 12.6964L13.7823 14.25H4.21967L5.00385 12.6964C5.05675 12.5916 5.08431 12.4759 5.08431 12.3585V8.41667C5.08431 6.25355 6.83786 4.5 9.00098 4.5C11.1641 4.5 12.9176 6.25355 12.9176 8.41667V12.3585C12.9176 12.4759 12.9452 12.5916 12.9981 12.6964Z" />
</symbol>

<symbol id="icon-chevron-down" viewBox="0 0 16 16">
<path d="M13.1644 6.74741C13.5771 6.38049 13.6143 5.74842 13.2474 5.33564C12.8805 4.92285 12.2484 4.88567 11.8356 5.25259L13.1644 6.74741ZM8 10L7.33564 10.7474C7.71452 11.0842 8.28548 11.0842 8.66436 10.7474L8 10ZM4.16436 5.25259C3.75158 4.88567 3.11951 4.92285 2.75259 5.33564C2.38567 5.74842 2.42285 6.38049 2.83564 6.74741L4.16436 5.25259ZM11.8356 5.25259L7.33564 9.25259L8.66436 10.7474L13.1644 6.74741L11.8356 5.25259ZM8.66436 9.25259L4.16436 5.25259L2.83564 6.74741L7.33564 10.7474L8.66436 9.25259Z"/>
</symbol>

</defs>
</svg>
